<svg id="svg" version="1.1" xmlns="http://www.w3.org/2000/svg" xmlns:xlink="http://www.w3.org/1999/xlink" width="400" height="356" viewBox="0, 0, 400,356"><g id="svgg"><path id="path0" d="M0.000 178.094 L 0.000 356.189 200.000 356.189 L 400.000 356.189 400.000 178.094 L 400.000 0.000 200.000 0.000 L 0.000 0.000 0.000 178.094 M251.032 31.612 L 251.129 38.112 256.749 38.112 C 263.750 38.112,263.224 37.586,263.224 44.587 L 263.224 50.207 269.724 50.304 L 276.224 50.401 276.316 78.272 L 276.407 106.144 282.060 106.144 C 286.408 106.144,287.807 106.257,288.118 106.632 C 288.407 106.980,288.495 110.717,288.428 119.721 L 288.335 132.324 282.458 132.502 L 276.581 132.680 276.402 138.557 L 276.224 144.435 269.724 144.532 L 263.224 144.629 263.224 156.731 L 263.224 168.833 269.368 168.839 C 272.747 168.842,275.710 168.970,275.953 169.124 C 276.286 169.336,276.416 172.438,276.487 181.852 L 276.581 194.301 282.458 194.479 L 288.335 194.657 288.426 219.195 C 288.493 237.024,288.408 243.865,288.116 244.217 C 287.807 244.589,286.395 244.702,282.066 244.702 L 276.419 244.702 276.321 251.202 L 276.224 257.703 269.724 257.800 L 263.224 257.897 263.224 263.516 C 263.224 270.518,263.751 269.991,256.742 269.991 L 251.116 269.991 251.026 310.508 L 250.935 351.024 204.012 351.114 L 157.088 351.205 156.995 338.648 L 156.901 326.091 150.312 325.913 L 143.722 325.735 143.624 319.947 L 143.526 314.159 132.048 314.153 C 125.735 314.150,120.372 314.022,120.131 313.869 C 119.806 313.662,119.667 311.232,119.597 304.524 L 119.501 295.459 113.106 295.361 C 105.439 295.244,106.157 295.989,106.150 288.139 C 106.143 280.367,105.469 281.033,113.339 281.033 L 119.679 281.033 119.679 275.194 C 119.679 270.198,119.761 269.324,120.243 269.139 C 120.553 269.020,125.922 268.923,132.175 268.923 L 143.544 268.923 143.544 263.406 L 143.544 257.890 131.701 257.796 L 119.858 257.703 119.760 251.202 L 119.663 244.702 113.273 244.702 C 107.319 244.702,106.856 244.655,106.513 244.013 C 105.840 242.756,106.021 207.476,106.704 206.793 C 107.170 206.327,108.302 206.233,113.463 206.233 L 119.662 206.233 119.760 200.445 L 119.858 194.657 125.646 194.559 L 131.434 194.461 131.434 182.207 C 131.434 167.318,130.684 168.833,138.049 168.833 L 143.544 168.833 143.544 156.723 L 143.544 144.613 137.916 144.613 C 130.906 144.613,131.434 145.139,131.434 138.139 L 131.434 132.520 125.646 132.422 L 119.858 132.324 119.764 119.525 C 119.691 109.523,119.769 106.664,120.120 106.441 C 120.367 106.284,123.014 106.153,126.002 106.150 L 131.434 106.144 131.434 78.611 C 131.434 57.671,131.536 50.975,131.861 50.650 C 132.157 50.354,134.014 50.223,137.916 50.223 L 143.544 50.223 143.544 44.595 C 143.544 37.541,142.910 38.112,150.739 38.112 L 157.079 38.112 157.079 31.760 C 157.079 28.267,157.187 25.301,157.318 25.169 C 157.449 25.038,178.567 24.971,204.246 25.021 L 250.935 25.111 251.032 31.612 M144.613 250.943 L 144.613 257.185 150.757 257.088 L 156.901 256.990 156.999 250.846 L 157.096 244.702 150.854 244.702 L 144.613 244.702 144.613 250.943 " stroke="none" fill="#74eca4" fill-rule="evenodd"></path><path id="path1" d="M157.881 25.525 C 157.549 25.659,157.435 27.238,157.435 31.701 C 157.435 39.635,158.210 38.825,150.630 38.825 L 144.256 38.825 144.256 44.452 C 144.256 51.463,144.785 50.935,137.772 50.935 L 132.142 50.935 132.233 78.807 L 132.324 106.679 138.023 106.679 L 143.722 106.679 143.815 91.750 C 143.923 74.514,143.594 75.868,147.670 75.868 L 150.640 75.868 150.743 72.752 L 150.846 69.635 153.959 69.532 C 157.541 69.414,157.368 69.615,157.523 65.361 L 157.614 62.867 204.096 62.867 L 250.579 62.867 250.757 66.073 L 250.935 69.279 253.963 69.457 L 256.990 69.635 257.096 72.468 C 257.228 76.020,257.399 76.224,260.240 76.224 L 262.511 76.224 262.511 91.113 C 262.511 102.218,262.620 106.110,262.939 106.429 C 263.239 106.730,265.250 106.857,269.706 106.857 L 276.046 106.857 276.046 119.493 L 276.046 132.130 269.368 132.227 L 262.689 132.324 262.591 138.103 L 262.494 143.883 256.714 143.981 L 250.935 144.078 250.838 150.574 C 250.723 158.234,251.545 157.401,243.989 157.527 L 238.825 157.614 238.727 163.397 C 238.631 169.043,238.610 169.185,237.836 169.372 C 237.400 169.477,221.897 169.519,203.384 169.466 L 169.724 169.368 169.637 164.203 C 169.512 156.684,170.228 157.471,163.397 157.355 L 157.614 157.257 157.435 150.846 L 157.257 144.435 150.757 144.337 L 144.256 144.240 144.256 156.493 C 144.256 166.207,144.159 168.827,143.786 169.136 C 143.503 169.372,141.133 169.566,137.820 169.625 L 132.324 169.724 132.231 182.280 L 132.137 194.835 138.012 194.835 C 144.956 194.835,144.222 194.051,144.348 201.603 L 144.435 206.768 150.846 206.946 L 157.257 207.124 157.257 213.535 L 157.257 219.947 150.490 219.947 L 143.722 219.947 143.625 213.633 L 143.528 207.320 137.926 207.222 L 132.324 207.124 132.146 201.069 L 131.968 195.013 126.091 195.013 L 120.214 195.013 120.036 200.890 L 119.858 206.768 113.357 206.865 L 106.857 206.962 106.857 225.476 L 106.857 243.989 113.438 243.989 L 120.018 243.989 120.116 238.023 L 120.214 232.057 131.747 231.963 C 139.962 231.896,143.421 231.985,143.769 232.274 C 144.144 232.585,144.256 233.981,144.256 238.334 L 144.256 243.989 150.446 243.989 C 158.115 243.989,157.479 243.329,157.355 251.160 L 157.257 257.346 150.757 257.443 L 144.256 257.541 144.256 263.188 C 144.256 267.464,144.141 268.931,143.781 269.230 C 143.460 269.497,139.554 269.655,131.759 269.719 L 120.214 269.813 120.116 275.593 L 120.018 281.373 113.526 281.470 L 107.035 281.567 107.035 288.157 L 107.035 294.746 113.446 294.924 L 119.858 295.102 120.036 304.185 L 120.214 313.268 131.759 313.362 C 139.420 313.425,143.462 313.587,143.772 313.844 C 144.112 314.126,144.265 315.742,144.337 319.805 L 144.435 325.378 150.846 325.557 L 157.257 325.735 157.435 338.201 L 157.614 350.668 204.096 350.668 L 250.579 350.668 250.669 310.160 L 250.760 269.653 256.546 269.555 L 262.333 269.457 262.431 263.495 L 262.528 257.534 250.676 257.440 L 238.825 257.346 238.825 244.880 L 238.825 232.413 244.880 232.413 L 250.935 232.413 251.033 238.023 L 251.131 243.633 256.631 243.633 C 263.380 243.633,262.867 243.005,262.867 251.276 L 262.867 257.541 269.368 257.443 L 275.868 257.346 276.046 250.757 L 276.224 244.167 282.102 243.989 L 287.979 243.811 288.070 219.808 C 288.137 202.373,288.052 195.672,287.759 195.320 C 287.451 194.948,286.038 194.835,281.706 194.835 L 276.055 194.835 275.962 182.280 L 275.868 169.724 269.583 169.627 C 264.845 169.554,263.199 169.412,262.900 169.050 C 262.619 168.713,262.529 164.947,262.595 156.325 L 262.689 144.078 269.279 143.900 L 275.868 143.722 275.966 137.934 L 276.064 132.146 281.711 132.146 C 286.054 132.146,287.450 132.034,287.762 131.659 C 288.050 131.311,288.139 127.712,288.072 119.103 L 287.979 107.035 282.015 106.937 L 276.051 106.839 275.959 78.976 L 275.868 51.113 269.661 51.015 C 261.896 50.893,262.511 51.455,262.511 44.489 L 262.511 38.842 256.723 38.744 L 250.935 38.646 250.837 32.439 C 250.777 28.599,250.590 26.052,250.348 25.761 C 249.959 25.292,159.033 25.060,157.881 25.525 M219.660 38.750 C 219.898 38.902,220.134 40.039,220.195 41.327 L 220.303 43.633 222.707 43.738 L 225.111 43.844 225.111 41.584 C 225.111 38.677,225.351 38.468,228.701 38.468 C 232.065 38.468,232.308 38.697,232.164 41.732 L 232.057 43.989 228.851 44.167 L 225.646 44.346 225.467 47.551 L 225.289 50.757 222.941 50.861 C 220.000 50.991,219.830 50.799,219.696 47.178 L 219.590 44.346 216.652 44.242 L 213.713 44.139 213.713 47.137 C 213.713 50.902,213.613 50.996,209.741 50.861 L 206.768 50.757 206.664 47.581 C 206.540 43.793,206.511 43.824,210.240 43.817 L 213.001 43.811 213.001 41.567 C 213.001 40.297,213.186 39.138,213.428 38.896 C 213.902 38.422,218.958 38.304,219.660 38.750 M169.792 94.975 C 169.657 95.110,169.543 96.116,169.540 97.210 C 169.533 99.966,169.442 100.042,165.973 100.162 L 162.956 100.267 162.956 110.062 L 162.956 119.858 165.789 119.963 C 169.271 120.092,169.487 120.264,169.619 123.004 L 169.724 125.200 175.423 125.200 L 181.122 125.200 181.300 122.707 L 181.478 120.214 184.684 120.036 L 187.890 119.858 187.890 110.062 L 187.890 100.267 184.684 100.089 L 181.478 99.911 181.300 97.418 L 181.122 94.924 175.580 94.827 C 172.532 94.773,169.927 94.840,169.792 94.975 M225.647 95.183 C 225.558 95.433,225.441 96.598,225.388 97.774 L 225.289 99.911 222.796 100.089 L 220.303 100.267 220.303 110.062 L 220.303 119.858 222.796 120.036 L 225.289 120.214 225.467 122.707 L 225.646 125.200 232.057 125.200 L 238.468 125.200 238.646 122.707 L 238.825 120.214 241.318 120.036 L 243.811 119.858 243.811 110.062 L 243.811 100.267 241.318 100.089 L 238.825 99.911 238.646 97.418 L 238.468 94.924 232.138 94.827 C 227.264 94.752,225.771 94.834,225.647 95.183 M180.944 110.062 L 180.944 119.679 175.423 119.679 L 169.902 119.679 169.902 110.062 L 169.902 100.445 175.423 100.445 L 180.944 100.445 180.944 110.062 M238.290 110.062 L 238.290 119.679 232.057 119.679 L 225.824 119.679 225.824 110.062 L 225.824 100.445 232.057 100.445 L 238.290 100.445 238.290 110.062 M120.201 107.295 C 120.105 107.546,120.068 113.200,120.120 119.860 L 120.214 131.968 126.091 131.968 L 131.968 131.968 131.968 119.501 L 131.968 107.035 126.172 106.937 C 121.716 106.862,120.336 106.944,120.201 107.295 M200.341 120.481 C 200.241 120.742,200.203 123.434,200.257 126.462 L 200.356 131.968 203.384 131.968 L 206.411 131.968 206.411 126.091 L 206.411 120.214 203.467 120.110 C 201.268 120.033,200.477 120.127,200.341 120.481 M132.146 138.014 L 132.146 143.900 138.032 143.900 L 143.918 143.900 143.820 138.112 L 143.722 132.324 137.934 132.226 L 132.146 132.128 132.146 138.014 M188.216 139.398 C 188.112 139.668,188.076 140.751,188.136 141.806 L 188.246 143.722 204.096 143.722 L 219.947 143.722 219.947 141.407 L 219.947 139.092 204.175 138.999 C 191.034 138.922,188.373 138.988,188.216 139.398 M225.387 187.842 C 225.510 195.389,226.038 194.794,219.109 194.915 L 213.535 195.013 213.437 200.587 C 213.314 207.619,214.305 206.980,203.696 206.863 L 195.013 206.768 194.835 200.890 L 194.657 195.013 188.450 194.916 C 184.609 194.855,182.063 194.669,181.771 194.427 C 181.268 194.009,181.054 182.378,181.540 181.891 C 181.672 181.759,191.570 181.692,203.535 181.743 L 225.289 181.834 225.387 187.842 M276.046 207.258 C 276.046 217.337,275.954 219.758,275.559 220.086 C 275.211 220.374,271.613 220.464,263.003 220.397 L 250.935 220.303 250.838 213.624 L 250.741 206.946 256.377 206.946 C 263.380 206.946,262.867 207.439,262.867 200.701 C 262.867 197.736,262.974 195.203,263.105 195.073 C 263.235 194.942,266.201 194.835,269.694 194.835 L 276.046 194.835 276.046 207.258 M120.117 250.846 L 120.214 257.346 132.057 257.440 L 143.900 257.534 143.900 250.940 L 143.900 244.346 131.960 244.346 L 120.020 244.346 120.117 250.846 " stroke="none" fill="#110e15" fill-rule="evenodd"></path><path id="path2" d="M213.713 41.496 L 213.713 43.811 216.741 43.811 L 219.768 43.811 219.768 41.496 L 219.768 39.181 216.741 39.181 L 213.713 39.181 213.713 41.496 M225.824 41.510 L 225.824 43.840 228.762 43.737 L 231.701 43.633 231.807 41.407 L 231.913 39.181 228.868 39.181 L 225.824 39.181 225.824 41.510 M207.020 47.462 L 207.124 50.401 210.062 50.504 L 213.001 50.608 213.001 47.566 L 213.001 44.524 209.959 44.524 L 206.917 44.524 207.020 47.462 M220.481 47.568 L 220.481 50.613 222.707 50.507 L 224.933 50.401 225.037 47.462 L 225.140 44.524 222.810 44.524 L 220.481 44.524 220.481 47.568 M157.852 63.151 C 157.641 63.406,157.421 64.888,157.363 66.446 L 157.257 69.279 154.351 69.382 C 150.817 69.507,150.730 69.596,150.595 73.214 L 150.490 76.046 147.377 76.149 L 144.264 76.252 144.171 91.465 L 144.078 106.679 138.201 106.857 L 132.324 107.035 132.324 119.501 L 132.324 131.968 138.201 132.146 L 144.078 132.324 144.176 138.112 L 144.274 143.900 150.605 143.900 C 158.459 143.900,157.792 143.249,157.792 150.917 L 157.792 157.079 163.269 157.079 C 169.993 157.079,169.501 156.580,169.625 163.516 L 169.724 169.012 204.007 169.102 L 238.290 169.193 238.290 163.825 C 238.290 156.564,237.800 157.079,244.714 157.079 L 250.401 157.079 250.406 150.935 C 250.413 143.250,249.808 143.939,256.649 143.821 L 262.333 143.722 262.432 138.038 C 262.550 131.197,261.861 131.802,269.546 131.795 L 275.690 131.790 275.690 119.501 L 275.690 107.213 269.500 107.213 C 264.764 107.213,263.218 107.101,262.915 106.736 C 262.642 106.407,262.490 101.628,262.426 91.331 L 262.333 76.402 259.840 76.224 L 257.346 76.046 257.243 72.930 L 257.141 69.813 254.512 69.813 C 250.685 69.813,250.757 69.877,250.757 66.462 C 250.757 64.667,250.592 63.380,250.329 63.117 C 249.678 62.465,158.393 62.499,157.852 63.151 M181.467 95.548 C 181.567 95.988,181.690 97.150,181.741 98.130 L 181.834 99.911 184.862 100.089 L 187.890 100.267 187.984 110.038 C 188.093 121.246,188.393 120.378,184.417 120.386 L 181.656 120.392 181.656 122.636 C 181.656 125.755,181.697 125.735,175.423 125.735 C 169.148 125.735,169.190 125.755,169.190 122.636 L 169.190 120.392 166.233 120.392 C 162.162 120.392,162.421 121.082,162.428 110.258 C 162.434 99.370,162.163 100.149,165.995 100.016 L 169.012 99.911 169.110 97.774 C 169.259 94.527,168.803 94.746,175.405 94.746 C 181.213 94.746,181.289 94.756,181.467 95.548 M238.814 95.548 C 238.913 95.988,239.036 97.150,239.088 98.130 L 239.181 99.911 241.591 100.016 L 244.000 100.122 243.906 110.168 L 243.811 120.214 241.407 120.319 L 239.003 120.424 239.003 122.652 C 239.003 125.786,239.119 125.735,232.057 125.735 C 224.991 125.735,225.111 125.788,225.111 122.636 L 225.111 120.392 222.867 120.392 C 219.621 120.392,219.768 120.874,219.774 110.258 C 219.780 99.584,219.620 100.160,222.627 100.019 L 224.933 99.911 225.026 98.130 C 225.219 94.436,224.575 94.746,232.057 94.746 C 238.585 94.746,238.634 94.752,238.814 95.548 M169.902 110.062 L 169.902 119.679 175.423 119.679 L 180.944 119.679 180.944 110.062 L 180.944 100.445 175.423 100.445 L 169.902 100.445 169.902 110.062 M225.824 110.062 L 225.824 119.679 232.057 119.679 L 238.290 119.679 238.290 110.062 L 238.290 100.445 232.057 100.445 L 225.824 100.445 225.824 110.062 M206.729 120.599 C 206.848 120.909,206.946 123.380,206.946 126.091 C 206.946 132.538,207.176 132.146,203.384 132.146 C 199.591 132.146,199.822 132.538,199.822 126.091 C 199.822 119.644,199.591 120.036,203.384 120.036 C 205.909 120.036,206.555 120.144,206.729 120.599 M219.697 138.862 C 220.022 139.068,220.128 139.889,220.053 141.617 L 219.947 144.078 204.096 144.078 L 188.246 144.078 188.138 141.801 C 188.079 140.548,188.114 139.306,188.216 139.040 C 188.428 138.488,218.836 138.316,219.697 138.862 M181.896 181.891 C 181.764 182.023,181.656 184.906,181.656 188.297 L 181.656 194.463 188.157 194.560 L 194.657 194.657 194.835 200.534 L 195.013 206.411 204.007 206.507 L 213.001 206.602 213.001 200.968 C 213.001 193.950,212.471 194.479,219.492 194.479 L 225.128 194.479 225.030 188.157 L 224.933 181.834 203.535 181.743 C 191.766 181.692,182.029 181.759,181.896 181.891 M132.307 195.286 C 132.208 195.544,132.171 198.233,132.225 201.262 L 132.324 206.768 138.104 206.865 L 143.884 206.963 143.981 213.455 L 144.078 219.947 150.490 219.947 L 156.901 219.947 156.998 213.446 L 157.095 206.946 150.506 206.946 L 143.917 206.946 143.820 200.980 L 143.722 195.013 138.105 194.915 C 133.715 194.839,132.447 194.920,132.307 195.286 M263.038 195.637 C 262.948 195.882,262.833 198.486,262.782 201.425 L 262.689 206.768 256.812 206.946 L 250.935 207.124 250.838 213.396 C 250.758 218.591,250.832 219.743,251.269 220.107 C 251.679 220.446,254.489 220.487,263.744 220.285 L 275.690 220.024 275.690 207.608 L 275.690 195.191 269.446 195.191 C 264.775 195.191,263.160 195.304,263.038 195.637 M120.397 232.581 C 120.162 233.020,120.054 235.306,120.115 238.552 L 120.214 243.811 131.968 243.811 L 143.722 243.811 143.722 237.934 L 143.722 232.057 132.250 231.963 C 121.097 231.872,120.768 231.889,120.397 232.581 M239.087 244.782 L 239.181 257.346 250.757 257.346 L 262.333 257.346 262.430 250.677 L 262.527 244.007 256.731 243.909 L 250.935 243.811 250.757 238.112 L 250.579 232.413 244.786 232.315 L 238.994 232.217 239.087 244.782 " stroke="none" fill="#f5d088" fill-rule="evenodd"></path><path id="path3" d="M157.318 25.169 C 157.187 25.301,157.079 28.267,157.079 31.760 L 157.079 38.112 150.739 38.112 C 142.910 38.112,143.544 37.541,143.544 44.595 L 143.544 50.223 137.916 50.223 C 134.014 50.223,132.157 50.354,131.861 50.650 C 131.536 50.975,131.434 57.671,131.434 78.611 L 131.434 106.144 126.002 106.150 C 123.014 106.153,120.367 106.284,120.120 106.441 C 119.769 106.664,119.691 109.523,119.764 119.525 L 119.858 132.324 125.646 132.422 L 131.434 132.520 131.434 138.139 C 131.434 145.139,130.906 144.613,137.916 144.613 L 143.544 144.613 143.544 156.723 L 143.544 168.833 138.049 168.833 C 130.684 168.833,131.434 167.318,131.434 182.207 L 131.434 194.461 125.646 194.559 L 119.858 194.657 119.760 200.445 L 119.662 206.233 113.463 206.233 C 108.302 206.233,107.170 206.327,106.704 206.793 C 106.021 207.476,105.840 242.756,106.513 244.013 C 106.856 244.655,107.319 244.702,113.273 244.702 L 119.663 244.702 119.760 251.202 L 119.858 257.703 131.701 257.796 L 143.544 257.890 143.544 263.406 L 143.544 268.923 132.175 268.923 C 125.922 268.923,120.553 269.020,120.243 269.139 C 119.761 269.324,119.679 270.198,119.679 275.194 L 119.679 281.033 113.339 281.033 C 105.469 281.033,106.143 280.367,106.150 288.139 C 106.157 295.989,105.439 295.244,113.106 295.361 L 119.501 295.459 119.597 304.524 C 119.667 311.232,119.806 313.662,120.131 313.869 C 120.372 314.022,125.735 314.150,132.048 314.153 L 143.526 314.159 143.624 319.947 L 143.722 325.735 150.312 325.913 L 156.901 326.091 156.995 338.648 L 157.088 351.205 204.012 351.114 L 250.935 351.024 251.026 310.508 L 251.116 269.991 256.742 269.991 C 263.751 269.991,263.224 270.518,263.224 263.516 L 263.224 257.897 269.724 257.800 L 276.224 257.703 276.321 251.202 L 276.419 244.702 282.066 244.702 C 286.395 244.702,287.807 244.589,288.116 244.217 C 288.408 243.865,288.493 237.024,288.426 219.195 L 288.335 194.657 282.458 194.479 L 276.581 194.301 276.487 181.852 C 276.416 172.438,276.286 169.336,275.953 169.124 C 275.710 168.970,272.747 168.842,269.368 168.839 L 263.224 168.833 263.224 156.731 L 263.224 144.629 269.724 144.532 L 276.224 144.435 276.402 138.557 L 276.581 132.680 282.458 132.502 L 288.335 132.324 288.428 119.721 C 288.495 110.717,288.407 106.980,288.118 106.632 C 287.807 106.257,286.408 106.144,282.060 106.144 L 276.407 106.144 276.316 78.272 L 276.224 50.401 269.724 50.304 L 263.224 50.207 263.224 44.587 C 263.224 37.586,263.750 38.112,256.749 38.112 L 251.129 38.112 251.032 31.612 L 250.935 25.111 204.246 25.021 C 178.567 24.971,157.449 25.038,157.318 25.169 M250.348 25.761 C 250.590 26.052,250.777 28.599,250.837 32.439 L 250.935 38.646 256.723 38.744 L 262.511 38.842 262.511 44.489 C 262.511 51.455,261.896 50.893,269.661 51.015 L 275.868 51.113 275.959 78.985 L 276.051 106.857 269.708 106.857 C 265.138 106.857,263.226 106.732,262.867 106.411 C 262.442 106.033,262.438 106.059,262.839 106.589 C 263.256 107.141,264.023 107.213,269.500 107.213 L 275.690 107.213 275.690 119.493 L 275.690 131.773 269.368 131.879 L 263.045 131.985 269.555 132.066 L 276.064 132.146 275.966 137.934 L 275.868 143.722 269.279 143.900 L 262.689 144.078 262.595 156.325 C 262.529 164.947,262.619 168.713,262.900 169.050 C 263.199 169.412,264.845 169.554,269.583 169.627 L 275.868 169.724 275.962 182.280 L 276.055 194.835 269.660 194.835 C 266.143 194.835,263.191 194.955,263.100 195.102 C 263.009 195.249,265.802 195.322,269.308 195.265 L 275.681 195.160 275.779 207.554 L 275.878 219.947 275.962 207.391 L 276.046 194.835 281.702 194.835 C 286.037 194.835,287.451 194.948,287.759 195.320 C 288.052 195.672,288.137 202.373,288.070 219.808 L 287.979 243.811 282.102 243.989 L 276.224 244.167 276.046 250.757 L 275.868 257.346 269.368 257.443 L 262.867 257.541 262.819 251.032 C 262.792 247.452,262.709 244.844,262.634 245.236 C 262.559 245.628,262.460 251.238,262.415 257.703 L 262.333 269.457 256.546 269.555 L 250.760 269.653 250.669 310.160 L 250.579 350.668 204.096 350.668 L 157.614 350.668 157.435 338.201 L 157.257 325.735 150.846 325.557 L 144.435 325.378 144.337 319.805 C 144.265 315.742,144.112 314.126,143.772 313.844 C 143.462 313.587,139.420 313.425,131.759 313.362 L 120.214 313.268 120.036 304.185 L 119.858 295.102 113.446 294.924 L 107.035 294.746 107.035 288.157 L 107.035 281.567 113.526 281.470 L 120.018 281.373 120.116 275.593 L 120.214 269.813 131.759 269.719 C 139.554 269.655,143.460 269.497,143.781 269.230 C 144.141 268.931,144.256 267.464,144.256 263.188 L 144.256 257.541 150.757 257.443 L 157.257 257.346 157.355 251.160 C 157.479 243.329,158.115 243.989,150.446 243.989 L 144.256 243.989 144.181 238.201 L 144.106 232.413 143.914 238.112 L 143.722 243.811 125.289 243.897 L 106.857 243.984 106.857 225.473 L 106.857 206.962 113.357 206.865 L 119.858 206.768 120.036 200.890 L 120.214 195.013 126.269 195.013 L 132.324 195.013 132.324 182.369 L 132.324 169.724 137.820 169.625 C 141.133 169.566,143.503 169.372,143.786 169.136 C 144.159 168.827,144.256 166.207,144.256 156.493 L 144.256 144.240 150.757 144.337 L 157.257 144.435 157.435 150.846 L 157.614 157.257 163.224 157.271 L 168.834 157.285 163.313 157.173 L 157.792 157.061 157.792 150.908 C 157.792 143.249,158.460 143.900,150.597 143.900 L 144.256 143.900 144.256 138.222 C 144.256 135.099,144.136 132.470,143.989 132.379 C 143.842 132.287,143.770 134.842,143.828 138.057 L 143.933 143.900 138.024 143.900 L 132.114 143.900 132.219 137.934 L 132.324 131.968 126.269 131.968 L 120.214 131.968 120.214 119.501 L 120.214 107.035 126.269 107.035 L 132.324 107.035 132.229 78.985 L 132.133 50.935 137.768 50.935 C 144.785 50.935,144.256 51.463,144.256 44.452 L 144.256 38.825 150.630 38.825 C 158.210 38.825,157.435 39.635,157.435 31.701 C 157.435 27.238,157.549 25.659,157.881 25.525 C 159.033 25.060,249.959 25.292,250.348 25.761 M213.428 38.896 C 213.186 39.138,213.001 40.297,213.001 41.567 L 213.001 43.811 210.240 43.817 C 206.511 43.824,206.540 43.793,206.664 47.581 L 206.768 50.757 209.741 50.861 C 213.613 50.996,213.713 50.902,213.713 47.137 L 213.713 44.139 216.652 44.242 L 219.590 44.346 219.696 47.178 C 219.830 50.799,220.000 50.991,222.941 50.861 L 225.289 50.757 225.467 47.551 L 225.646 44.346 228.851 44.167 L 232.057 43.989 232.164 41.732 C 232.308 38.697,232.065 38.468,228.701 38.468 C 225.351 38.468,225.111 38.677,225.111 41.584 L 225.111 43.844 222.707 43.738 L 220.303 43.633 220.195 41.327 C 220.134 40.039,219.898 38.902,219.660 38.750 C 218.958 38.304,213.902 38.422,213.428 38.896 M219.696 41.421 L 219.802 43.839 216.668 43.736 L 213.535 43.633 213.426 41.717 C 213.259 38.789,213.269 38.780,216.646 38.899 L 219.590 39.003 219.696 41.421 M231.806 41.407 L 231.911 43.811 228.689 43.811 L 225.467 43.811 225.467 41.555 C 225.467 38.725,225.401 38.778,228.835 38.900 L 231.701 39.003 231.806 41.407 M213.179 47.373 L 213.179 50.401 210.062 50.504 L 206.946 50.607 206.946 47.624 C 206.946 43.984,206.812 44.118,210.313 44.243 L 213.179 44.346 213.179 47.373 M225.111 47.389 L 225.111 50.611 222.707 50.506 L 220.303 50.401 220.197 47.763 C 220.052 44.156,220.044 44.167,222.785 44.167 L 225.111 44.167 225.111 47.389 M252.814 69.718 C 253.652 69.793,254.934 69.792,255.664 69.716 C 256.393 69.639,255.708 69.578,254.141 69.579 C 252.573 69.580,251.977 69.643,252.814 69.718 M145.948 76.129 C 146.781 76.204,148.143 76.204,148.976 76.129 C 149.809 76.054,149.127 75.993,147.462 75.993 C 145.797 75.993,145.116 76.054,145.948 76.129 M143.900 91.612 C 143.802 99.977,143.844 106.699,143.993 106.550 C 144.142 106.401,144.222 99.557,144.171 91.341 L 144.078 76.402 143.900 91.612 M169.336 95.234 C 169.233 95.502,169.201 96.584,169.264 97.638 L 169.380 99.555 169.552 97.150 C 169.725 94.729,169.681 94.336,169.336 95.234 M181.349 97.486 C 181.322 98.698,181.420 99.765,181.567 99.856 C 181.714 99.947,181.788 99.275,181.730 98.363 C 181.553 95.537,181.399 95.184,181.349 97.486 M225.107 97.669 C 225.011 98.982,225.062 99.927,225.220 99.769 C 225.377 99.610,225.455 98.535,225.393 97.380 L 225.280 95.280 225.107 97.669 M238.695 97.486 C 238.668 98.698,238.767 99.765,238.914 99.856 C 239.061 99.947,239.134 99.275,239.077 98.363 C 238.899 95.537,238.746 95.184,238.695 97.486 M162.502 110.080 C 162.409 121.115,162.161 120.418,166.144 120.325 L 169.012 120.259 165.984 120.058 L 162.956 119.858 162.769 110.240 L 162.583 100.623 162.502 110.080 M219.849 110.080 C 219.757 120.904,219.607 120.392,222.867 120.392 L 225.111 120.392 225.111 122.636 C 225.111 125.788,224.991 125.735,232.057 125.735 C 239.123 125.735,239.003 125.788,239.003 122.636 L 239.003 120.392 241.297 120.392 C 242.559 120.392,243.666 120.272,243.757 120.125 C 243.848 119.978,242.776 119.938,241.374 120.036 L 238.825 120.214 238.646 122.707 L 238.468 125.200 232.057 125.200 L 225.646 125.200 225.467 122.707 L 225.289 120.214 222.796 120.036 L 220.303 119.858 220.116 110.240 L 219.929 100.623 219.849 110.080 M288.072 119.103 C 288.139 127.712,288.050 131.311,287.762 131.659 C 287.450 132.034,286.053 132.146,281.702 132.146 L 276.046 132.146 276.046 119.493 L 276.046 106.839 282.012 106.937 L 287.979 107.035 288.072 119.103 M181.476 120.481 C 181.389 120.726,181.274 121.888,181.220 123.063 L 181.122 125.200 175.423 125.200 L 169.724 125.200 169.518 122.885 L 169.313 120.570 169.251 122.725 C 169.165 125.744,169.146 125.735,175.423 125.735 C 181.694 125.735,181.656 125.753,181.656 122.650 L 181.656 120.421 184.595 120.301 L 187.533 120.181 184.584 120.108 C 182.491 120.057,181.588 120.165,181.476 120.481 M199.965 126.091 C 199.965 129.127,200.020 130.370,200.087 128.851 C 200.153 127.333,200.153 124.849,200.087 123.330 C 200.020 121.812,199.965 123.054,199.965 126.091 M206.733 126.091 C 206.733 129.127,206.787 130.370,206.854 128.851 C 206.921 127.333,206.921 124.849,206.854 123.330 C 206.787 121.812,206.733 123.054,206.733 126.091 M188.301 138.825 C 188.150 139.068,199.992 139.062,214.069 138.814 C 217.106 138.760,212.587 138.680,204.028 138.637 C 195.469 138.593,188.391 138.678,188.301 138.825 M188.301 143.989 C 188.392 144.136,195.500 144.256,204.096 144.256 C 212.693 144.256,219.801 144.136,219.892 143.989 C 219.982 143.842,212.874 143.722,204.096 143.722 C 195.318 143.722,188.210 143.842,188.301 143.989 M250.548 150.846 C 250.548 154.372,250.602 155.767,250.666 153.945 C 250.731 152.123,250.731 149.237,250.666 147.533 C 250.601 145.829,250.548 147.320,250.548 150.846 M238.879 157.346 C 238.787 157.493,240.421 157.571,242.508 157.520 C 249.512 157.347,250.265 157.214,244.634 157.147 C 241.560 157.110,238.970 157.199,238.879 157.346 M238.434 163.669 C 238.435 166.803,238.489 168.038,238.556 166.412 C 238.622 164.787,238.621 162.222,238.555 160.713 C 238.488 159.204,238.434 160.534,238.434 163.669 M169.850 169.281 C 169.998 169.428,185.418 169.509,204.116 169.459 L 238.112 169.368 203.847 169.190 C 185.001 169.092,169.702 169.133,169.850 169.281 M181.458 182.115 C 181.361 182.368,181.326 185.213,181.381 188.438 L 181.481 194.301 181.657 187.978 C 181.831 181.770,181.812 181.193,181.458 182.115 M225.110 187.996 L 225.288 194.301 225.386 188.272 C 225.441 184.957,225.361 182.119,225.209 181.967 C 225.057 181.815,225.013 184.528,225.110 187.996 M183.972 194.722 C 189.159 194.978,194.755 194.991,194.603 194.746 C 194.512 194.599,191.601 194.510,188.136 194.548 C 184.670 194.585,182.796 194.664,183.972 194.722 M213.428 194.907 C 213.126 195.209,213.023 196.951,213.076 200.873 L 213.151 206.411 213.343 200.712 L 213.535 195.013 219.234 194.821 L 224.933 194.630 219.394 194.554 C 215.473 194.501,213.731 194.604,213.428 194.907 M143.976 201.174 L 143.900 206.979 138.057 206.873 C 134.842 206.815,132.287 206.888,132.379 207.035 C 132.470 207.182,135.019 207.302,138.044 207.302 L 143.544 207.302 143.544 213.514 C 143.544 216.931,143.664 219.801,143.811 219.892 C 143.958 219.983,144.031 217.162,143.973 213.622 C 143.916 210.082,143.996 207.092,144.151 206.977 C 144.307 206.862,144.348 204.203,144.243 201.069 L 144.051 195.370 143.976 201.174 M195.144 206.685 C 195.295 206.836,199.334 206.915,204.120 206.863 L 212.823 206.767 203.846 206.589 C 198.909 206.491,194.993 206.535,195.144 206.685 M157.078 213.607 C 156.981 217.173,157.025 219.966,157.177 219.814 C 157.329 219.662,157.408 216.744,157.354 213.331 L 157.256 207.124 157.078 213.607 M265.628 220.390 C 267.440 220.455,270.405 220.455,272.217 220.390 C 274.029 220.325,272.547 220.273,268.923 220.273 C 265.298 220.273,263.816 220.325,265.628 220.390 M250.757 238.056 L 250.935 243.811 256.545 243.825 L 262.156 243.839 256.634 243.727 L 251.113 243.615 251.113 238.124 C 251.113 235.104,250.993 232.559,250.846 232.467 C 250.699 232.376,250.659 234.891,250.757 238.056 M238.724 244.770 C 238.681 251.566,238.767 257.201,238.914 257.292 C 239.061 257.383,239.140 253.826,239.090 249.388 C 238.916 233.946,238.801 232.490,238.724 244.770 M143.900 250.940 L 143.900 257.534 132.057 257.440 L 120.214 257.346 120.117 250.846 L 120.020 244.346 131.960 244.346 L 143.900 244.346 143.900 250.940 M156.999 250.846 L 156.901 256.990 150.757 257.088 L 144.613 257.185 144.613 250.943 L 144.613 244.702 150.854 244.702 L 157.096 244.702 156.999 250.846 " stroke="none" fill="#3cb8a8" fill-rule="evenodd"></path><path id="path4" d="M213.504 39.312 C 213.401 39.581,213.376 40.662,213.449 41.717 L 213.581 43.633 213.647 41.421 L 213.713 39.210 216.652 39.090 L 219.590 38.970 216.641 38.897 C 214.421 38.843,213.645 38.945,213.504 39.312 M225.615 39.310 C 225.513 39.577,225.488 40.739,225.559 41.892 L 225.689 43.989 225.756 41.599 L 225.824 39.210 228.762 39.090 L 231.701 38.970 228.751 38.897 C 226.539 38.843,225.755 38.946,225.615 39.310 M210.226 44.427 L 212.973 44.552 213.097 47.298 L 213.222 50.045 213.201 47.195 L 213.179 44.346 210.329 44.324 L 207.480 44.302 210.226 44.427 M220.275 44.646 C 220.174 44.909,220.147 46.312,220.215 47.763 L 220.339 50.401 220.410 47.478 L 220.481 44.556 222.885 44.432 L 225.289 44.307 222.874 44.237 C 221.129 44.187,220.407 44.300,220.275 44.646 " stroke="none" fill="#5cb8d4" fill-rule="evenodd"></path></g></svg>